<?xml version="1.0" encoding="UTF-8"?>
<svg width="63px" height="275px" viewBox="0 0 63 275" version="1.1" xmlns="http://www.w3.org/2000/svg" xmlns:xlink="http://www.w3.org/1999/xlink">
    <!-- Generator: Sketch 54.1 (76490) - https://sketchapp.com -->
    <title>Wine bottle focus</title>
    <desc>Created with Sketch.</desc>
    <g id="Design" stroke="none" stroke-width="1" fill="none" fill-rule="evenodd" opacity="0.648486">
        <g id="Message_screen_camera_focus_3" transform="translate(-156.000000, -139.000000)" fill="#FFE69C">
            <g id="Wine-bottle-focus" transform="translate(156.000000, 139.000000)">
                <path d="M59.5753055,210.49418 C59.5614991,213.081938 59.5601184,215.669697 59.5559765,218.257455 C50.5403667,220.683478 41.7953633,222.593623 32.377986,222.51415 C22.8598216,222.433283 13.9160053,220.35722 4.78442141,217.885186 C4.60217631,217.836386 4.4378796,217.911677 4.32880867,218.038555 C3.8911443,201.734004 3.18011229,185.432242 2.65960925,169.131874 C2.52016413,164.765032 2.36000935,160.382853 2.21642231,155.993703 C20.4091773,163.528318 41.6959569,163.896404 60.381602,157.910819 C60.3263762,160.106788 60.2670085,162.304152 60.2173053,164.500122 C59.8680022,179.828686 59.6540023,195.161433 59.5753055,210.49418 Z M59.3833959,263.946169 C60.8496406,266.408443 47.2282002,271.351117 45.9511038,271.67877 C41.2707184,272.873656 36.4177523,273.219434 31.6020637,273.14275 C21.6241446,272.985197 12.5367413,271.029042 4.09409907,265.686213 C4.27496352,265.548181 4.40474412,265.336252 4.41302799,265.042062 C4.90867943,249.583831 4.75266658,234.131177 4.34399576,218.682706 C4.37160865,218.70362 4.39231832,218.725928 4.42683444,218.74266 C20.7570997,226.112751 42.7411049,226.500357 59.5504539,220.110435 C59.5311249,234.331952 59.6236281,248.554863 59.8321054,262.773591 C59.4013443,262.939508 59.0906992,263.452598 59.3833959,263.946169 Z M2.16395781,123.05416 C2.46769964,116.970976 3.45624123,109.945268 8.28573632,105.72343 C11.9057867,102.557051 18.0910748,101.398415 19.1997325,96.245207 C19.4482486,96.1476083 19.648442,95.9245257 19.6622485,95.5675935 C19.9756548,87.6314295 19.8072162,79.6478604 19.924571,71.7033308 C20.0350225,64.2021778 20.6052288,56.5783294 20.2145064,49.0785708 C23.2947246,50.4212493 27.4573683,50.6080809 30.0446965,50.8269808 C33.7462049,51.1392964 38.385171,51.7053686 41.5385634,50.0280661 C41.4985247,57.4148892 41.5965505,64.794741 41.7277118,72.1815641 C41.8519698,79.2839569 41.4101635,86.6847226 42.1722793,93.7438931 C42.7190146,98.7953201 46.2631295,99.7657295 50.1027024,102.106703 C56.0242874,105.717853 59.2563766,112.347589 60.4271633,119.047039 C61.6959758,126.302801 61.0884921,133.771886 60.8565438,141.091784 C60.6991503,146.034458 60.5610858,150.978527 60.4313052,155.923989 C60.3415633,155.922595 60.2462988,155.930961 60.1455118,155.96024 C40.7336476,161.540094 21.4225704,160.824836 2.18190619,154.901992 C1.84502889,144.277683 1.63655154,133.619911 2.16395781,123.05416 Z M17.6727395,43.9616133 C17.2792558,42.3456586 17.7541975,40.0423306 17.8025201,38.3803651 C17.8881201,35.4788968 17.7597201,32.040636 20.4354095,30.3145343 C20.6411256,31.8203419 20.9227771,33.4362966 21.6752284,34.4987276 C21.7829187,34.6520969 21.9375509,34.7496955 22.1018476,34.7817637 C24.1189695,37.1771132 27.6755102,37.3555793 30.6024769,37.6748663 C33.9891983,38.0457412 37.9475066,38.3580568 40.5003186,35.6740941 C40.6052476,35.5639471 40.6494283,35.4356746 40.6618541,35.3060078 C40.8302927,35.2488429 40.9752604,35.1052335 41.0042539,34.877968 C41.1298926,33.8866447 41.2458668,32.8897442 41.3604603,31.8900553 C44.0471948,33.2146083 44.0085368,42.7778812 43.4452337,44.807933 C41.9417117,50.2218692 35.1199463,49.6655569 30.7778188,49.399252 C26.953433,49.1650153 18.8863262,48.9558753 17.6727395,43.9616133 Z M18.9111778,6.89922529 C22.62097,9.96521698 27.6437554,10.9342321 32.3724634,10.5271063 C35.3008108,10.2747441 39.4689771,9.26808381 41.3259442,6.59527522 C40.4064348,15.8099815 39.9729124,25.3481576 40.059893,34.5726237 C39.9535833,34.5712294 39.8417511,34.5893549 39.7285383,34.663251 C34.9556496,37.772465 27.8287618,36.4618546 22.8570603,34.2254514 C22.8667248,34.1808349 22.8750086,34.1320355 22.8846732,34.0706878 C22.9178086,33.8476052 22.6844797,33.5617806 22.4511507,33.7332754 C23.3485698,33.0682103 20.73639,22.2682232 20.5154869,20.670394 C19.8859129,16.1041717 19.6829581,11.4375622 18.9111778,6.89922529 Z M18.311978,5.17591208 C19.1596938,4.0855958 20.2697321,3.40379956 21.642093,3.13052336 C22.5270862,2.82239049 23.4258859,2.56445122 24.338492,2.3580998 C26.0877688,1.96352242 27.8826069,1.75995954 29.6746837,1.74741114 C33.4728372,1.72231435 37.0238553,2.61325054 40.4713251,4.10511553 C40.4230025,4.22781097 40.4022929,4.3672376 40.4285251,4.5164241 C41.1078023,8.39945587 31.2486186,8.97807641 29.2591096,8.89999749 C25.3781175,8.74941673 22.0604283,7.578233 18.7813972,5.55096973 C18.8449068,5.29024192 18.6060553,5.03369692 18.311978,5.17591208 Z M48.9664318,99.5733207 C46.64971,98.339395 44.9970784,97.3648028 44.1935432,94.7254567 C43.5170273,92.5016018 43.7296465,90.0253848 43.6882272,87.7248453 L43.4631821,75.4539072 C43.304408,66.7230114 43.1414919,58.0004811 42.7673372,49.2765566 C42.7659566,49.2430942 42.7521501,49.2193917 42.7466275,49.1901121 C43.6523304,48.4023516 44.3619818,47.3371321 44.76513,45.8689696 C45.647362,42.6454259 45.2842524,39.2392332 44.5815043,36.0170836 C44.1341754,33.9647236 43.8746142,30.8903663 41.5288989,30.3856419 C42.4553115,21.8708573 42.9854791,13.121836 43.0545113,4.63633101 C43.0586532,4.27661029 42.8777888,4.05492194 42.6430792,3.95592903 C42.7535308,3.62548791 42.6789759,3.25182453 42.2647825,3.03710751 C37.235094,0.417281047 31.5606443,-0.56428246 25.9538463,0.314105337 C23.8676922,0.641757929 16.1347013,1.86592378 17.433888,5.69179063 C17.472546,5.808909 17.5622879,5.92742164 17.6741201,6.00550056 C17.600946,6.10170494 17.5526234,6.21882331 17.5498621,6.35964421 C17.4228428,11.2437592 18.2829844,16.2659066 18.9815907,21.0970395 C19.3308938,23.5049375 19.7160936,25.9086526 20.1468548,28.3040022 C20.2172676,28.7013681 20.278016,29.1489276 20.3387644,29.6132183 C18.2512296,30.1095771 17.2806364,31.4982664 16.7366624,33.7235155 C16.0214885,36.6486863 15.7191273,41.9915149 16.3763141,44.9738506 C16.7394237,46.624662 17.8163265,47.7791145 19.252197,48.6003374 C18.3520167,55.9467268 18.5011263,63.491102 18.3464941,70.8807136 C18.1739135,79.0817883 17.8522233,87.3483934 18.1518232,95.5452853 C15.3836306,101.440243 7.54433012,102.373008 4.05820231,108.046277 C1.53300319,112.152392 0.769506681,117.120163 0.453339049,121.862063 C-0.572479948,137.226878 0.393971328,152.923528 0.893764702,168.296709 C1.93891272,200.53633 3.72822823,232.777345 2.69964794,265.042062 C2.69688665,265.136872 2.72173826,265.212163 2.74106728,265.290241 C2.61818991,265.457553 2.59057701,265.707127 2.75901566,265.888382 C11.0359805,274.818658 26.7090589,275.607812 38.0193001,274.719665 C43.5984853,274.281865 49.2039027,273.086979 54.1949332,270.450421 C55.7674875,269.620833 61.8160918,266.535321 61.1851372,263.884821 C61.4060404,263.750971 61.5717177,263.5251 61.5661952,263.182111 C61.1050598,232.240552 61.1727114,201.292022 61.8022854,170.353252 C62.1046466,155.493161 63.4977171,140.370948 62.8129173,125.5248 C62.3186465,114.800103 58.7648671,104.786483 48.9664318,99.5733207 Z" id="Fill-55"></path>
            </g>
        </g>
    </g>
</svg>